<?xml version="1.0" standalone="no"?>
<!DOCTYPE svg PUBLIC "-//W3C//DTD SVG 20010904//EN"
 "http://www.w3.org/TR/2001/REC-SVG-20010904/DTD/svg10.dtd">
<svg version="1.0" xmlns="http://www.w3.org/2000/svg"
 width="538.913851pt" height="570.910873pt" viewBox="0 0 538.913851 570.910873"
 preserveAspectRatio="xMidYMid meet">
<metadata>
Created by potrace 1.12, written by Peter Selinger 2001-2015
</metadata>
<g transform="translate(-456.780681,815.910873) scale(0.100000,-0.100000)"
fill="#000000" stroke="none">
<path d="M7970 8145 c7 -8 17 -15 23 -15 10 0 141 -112 164 -140 22 -27 13
-36 -9 -10 l-21 25 6 -24 c4 -18 3 -21 -6 -12 -6 6 -16 11 -21 11 -6 0 -4 -4
4 -10 26 -16 5 -19 -35 -5 -58 21 -78 19 -72 -5 4 -17 0 -20 -31 -21 -21 0
-46 -2 -57 -5 -11 -2 -39 -5 -63 -7 -51 -5 -67 -16 -26 -18 86 -5 234 -3 234
2 0 4 -10 14 -22 24 -22 16 -22 16 5 0 39 -23 115 -45 155 -45 18 0 41 -6 52
-12 17 -11 22 -10 30 2 14 22 12 30 -7 30 -15 0 -16 -2 -3 -10 8 -5 10 -10 4
-10 -5 0 -23 19 -40 42 -45 65 -112 129 -190 181 -74 49 -96 58 -74 32z"/>
<path d="M7268 7893 c12 -2 32 -2 45 0 12 2 2 4 -23 4 -25 0 -35 -2 -22 -4z"/>
<path d="M7906 7891 c-8 -12 42 -34 149 -66 157 -46 188 -57 272 -96 46 -22
91 -39 101 -39 11 0 27 -10 38 -21 10 -12 30 -26 44 -32 17 -7 20 -11 10 -14
-8 -2 -60 12 -114 32 -54 19 -101 33 -104 30 -3 -3 -11 0 -19 7 -7 6 -16 8
-19 6 -3 -3 -28 3 -57 14 -64 25 -163 50 -247 64 -19 3 -62 12 -120 24 -142
29 -229 35 -470 34 -140 -1 -300 -7 -355 -13 -55 -7 -120 -14 -145 -17 -25 -3
-90 -11 -145 -19 -137 -20 -186 -26 -215 -25 -20 0 -22 -2 -10 -11 12 -8 11
-9 -7 -4 -12 3 -59 -3 -105 -14 -45 -10 -110 -24 -143 -31 -54 -11 -103 -25
-305 -90 -36 -12 -85 -25 -110 -30 -25 -4 -56 -11 -70 -14 -14 -4 -40 -8 -58
-11 -17 -2 -53 -13 -78 -25 -26 -11 -55 -20 -65 -20 -9 0 -24 -7 -33 -15 -8
-8 -17 -15 -21 -15 -4 0 -14 -8 -23 -17 -16 -16 -16 -16 6 -11 27 8 29 -8 2
-24 -33 -21 -23 -28 19 -13 22 7 88 26 148 40 59 15 113 30 118 33 6 4 15 7
20 8 62 12 219 55 230 64 6 4 69 19 140 34 72 14 173 37 225 51 172 43 384 85
460 90 41 3 91 7 110 10 225 30 634 34 790 7 30 -6 105 -17 165 -26 119 -17
254 -50 296 -72 14 -7 91 -25 170 -39 132 -25 308 -77 369 -110 33 -18 169
-65 189 -65 9 -1 34 -9 56 -20 22 -11 44 -19 48 -20 28 -1 294 -115 421 -180
49 -25 50 -27 68 -100 10 -41 23 -89 28 -106 6 -17 10 -38 10 -47 0 -9 5 -17
10 -17 6 0 10 -13 10 -30 0 -16 5 -30 10 -30 6 0 9 3 9 8 -7 43 16 56 31 17 5
-14 11 -25 13 -25 6 0 0 201 -8 263 -5 39 -4 57 4 57 6 0 11 5 11 10 0 6 -6
10 -12 10 -7 0 -25 6 -40 14 -15 8 -52 20 -83 27 -31 7 -51 15 -45 19 7 4 -14
21 -49 39 -34 17 -61 29 -61 25 0 -3 -7 2 -16 11 -9 9 -21 14 -28 12 -6 -2
-19 7 -29 19 -10 13 -39 30 -65 38 -26 8 -103 36 -172 61 -69 26 -134 48 -145
50 -11 2 -45 13 -75 25 -30 12 -74 26 -98 31 -24 5 -48 12 -54 15 -6 4 -14 0
-19 -7 -7 -11 -9 -11 -9 2 0 16 -38 38 -68 40 -26 1 -77 34 -80 52 -4 19 9 21
55 8 18 -5 33 -6 35 -1 3 9 122 -20 156 -39 13 -7 28 -11 34 -9 13 5 -169 76
-216 85 -17 3 -41 13 -54 21 -25 16 -82 24 -82 11 0 -4 7 -10 16 -13 9 -4 14
-9 11 -12 -3 -4 -18 3 -32 15 -15 11 -43 23 -64 27 -20 3 -49 12 -66 19 -34
15 -234 65 -259 65 -10 0 -14 5 -11 10 3 6 -1 10 -9 10 -8 0 -18 -4 -21 -10
-8 -13 -51 -13 -75 0 -11 6 -21 6 -24 1z m577 -167 c20 -7 23 -24 5 -24 -15 1
-48 24 -48 34 0 4 6 5 13 2 6 -3 20 -9 30 -12z m-2473 -122 c0 -13 -86 -51
-130 -58 -55 -9 -50 2 8 20 26 8 63 21 82 30 42 18 40 18 40 8z"/>
<path d="M8353 7862 c-5 -4 16 -20 46 -36 52 -26 54 -27 30 -5 -37 34 -64 48
-76 41z"/>
<path d="M6355 7780 c-16 -4 -48 -9 -70 -10 l-40 -2 34 -10 c23 -6 37 -6 44 1
6 6 20 11 32 11 11 0 27 5 35 10 17 11 8 11 -35 0z"/>
<path d="M7320 7749 c-239 -9 -421 -26 -435 -41 -7 -7 5 -9 40 -4 101 12 413
30 520 28 123 -1 203 -7 320 -23 44 -6 104 -13 134 -14 29 -2 58 -8 64 -14 14
-14 40 -15 32 -1 -8 13 8 13 21 1 5 -5 32 -12 59 -15 l50 -6 -70 24 c-39 13
-72 20 -73 15 -2 -6 -10 -5 -18 2 -8 6 -23 9 -34 6 -11 -3 -37 -1 -57 4 -54
13 -240 37 -291 38 -24 1 -47 2 -50 4 -4 1 -99 -1 -212 -4z"/>
<path d="M6735 7694 c-60 -13 -129 -27 -153 -30 -27 -4 -39 -10 -31 -15 7 -4
16 -6 19 -4 3 2 48 11 100 20 141 23 200 37 200 47 0 11 -9 10 -135 -18z"/>
<path d="M7493 7673 c-24 -9 -13 -24 15 -21 15 2 26 8 25 13 -2 12 -23 16 -40
8z"/>
<path d="M9686 7639 c-13 -39 -26 -131 -27 -184 0 -95 -3 -118 -16 -123 -7 -2
-14 1 -14 7 -1 6 -3 16 -4 21 -1 6 -3 36 -5 68 l-2 57 -12 -40 c-10 -34 -15
-40 -36 -37 -14 2 -30 9 -35 16 -6 8 -26 17 -45 21 -19 4 -40 11 -46 16 -7 6
-27 11 -45 12 -19 1 -37 7 -41 12 -5 6 -8 5 -8 -3 0 -7 11 -17 25 -24 13 -6
22 -14 20 -19 -3 -4 0 -11 6 -15 8 -4 9 -3 5 4 -10 17 9 15 23 -1 6 -8 29 -20
51 -27 22 -7 40 -17 40 -22 0 -5 -6 -6 -12 -2 -9 5 -10 4 -3 -3 15 -16 55 -26
55 -14 0 19 15 12 25 -11 6 -12 30 -37 55 -55 25 -19 56 -42 69 -52 14 -11 44
-22 67 -26 23 -3 72 -17 109 -30 38 -14 70 -23 72 -21 2 1 -24 16 -57 32 -33
15 -60 32 -60 36 0 4 -9 8 -20 8 -11 0 -30 11 -42 25 -20 23 -56 36 -44 16 4
-5 -4 -7 -16 -3 -16 4 -18 7 -8 10 22 8 41 30 31 36 -5 4 -7 39 -5 79 4 55 3
68 -6 57 -9 -12 -10 -8 -5 18 5 24 3 32 -8 32 -10 0 -14 17 -16 67 -2 69 -7
87 -15 62z"/>
<path d="M6823 7633 c-20 -8 -15 -23 7 -23 11 0 20 7 20 15 0 15 -6 17 -27 8z"/>
<path d="M5839 7614 c-12 -15 -11 -16 11 -9 46 14 58 24 29 25 -15 0 -33 -7
-40 -16z"/>
<path d="M8905 7622 c6 -5 33 -17 60 -27 28 -10 55 -22 60 -25 19 -13 73 -28
79 -22 6 5 -96 48 -134 57 -8 2 -28 8 -45 15 -16 6 -25 7 -20 2z"/>
<path d="M5142 7602 c-2 -23 -26 -108 -42 -147 -6 -17 -10 -13 -20 25 -7 25
-12 65 -12 90 0 25 -2 36 -5 25 -2 -11 -8 -29 -13 -40 -12 -28 -19 -74 -29
-188 -5 -54 -12 -102 -17 -106 -5 -4 -25 -14 -44 -21 -53 -20 -334 -160 -345
-172 -5 -5 8 -2 30 7 22 9 94 34 160 56 148 50 199 77 203 107 2 14 10 22 23
22 15 0 19 7 19 38 0 49 14 73 25 40 l7 -23 8 25 c7 22 8 22 10 5 1 -11 2 -26
1 -32 -2 -16 7 -16 23 0 7 7 11 18 8 25 -2 6 7 16 20 21 12 6 18 10 11 10 -9
1 -13 37 -16 129 -1 70 -4 117 -5 104z"/>
<path d="M9592 7550 c0 -19 2 -27 5 -17 2 9 2 25 0 35 -3 9 -5 1 -5 -18z"/>
<path d="M5676 7433 c-10 -11 -165 -55 -198 -56 -14 -1 -24 -5 -22 -8 2 -3 -9
-6 -24 -6 -15 0 -47 -6 -72 -13 -25 -7 -51 -13 -57 -13 -7 0 -13 -4 -13 -9 0
-5 -5 -6 -10 -3 -12 7 -80 -15 -80 -26 0 -4 -15 -11 -32 -14 -44 -10 -57 -22
-51 -46 4 -13 9 -17 15 -11 6 6 22 7 39 2 23 -7 42 -3 86 17 43 20 53 28 39
33 -12 4 1 12 46 28 35 12 72 22 82 22 17 0 139 38 191 59 11 5 32 13 48 20
15 6 27 15 27 21 0 12 -4 13 -14 3z"/>
<path d="M9063 7356 c59 -30 113 -59 120 -65 19 -15 67 -32 67 -22 0 4 -26 21
-57 37 -32 16 -66 35 -76 43 -17 14 -102 48 -142 57 -11 3 29 -20 88 -50z"/>
<path d="M5220 7387 c-25 -12 -60 -42 -60 -52 0 -9 42 15 73 41 31 26 26 29
-13 11z"/>
<path d="M5093 7196 c4 -10 1 -16 -8 -16 -17 0 -20 -17 -5 -22 7 -2 7 -15 0
-38 -5 -19 -10 -49 -10 -66 0 -17 -3 -34 -7 -38 -7 -6 -12 -82 -14 -196 0 -18
-19 -214 -24 -252 -5 -39 14 -498 24 -588 5 -41 14 -106 20 -145 5 -38 12 -90
15 -115 18 -186 44 -290 73 -290 7 0 13 -5 13 -11 0 -5 -4 -7 -10 -4 -14 8
-13 7 14 -63 14 -35 25 -70 25 -80 1 -49 11 -113 21 -134 10 -19 10 -21 -1
-10 -7 6 -18 12 -24 12 -5 -1 0 -9 12 -19 13 -11 22 -29 22 -43 -1 -12 6 -54
15 -91 9 -38 16 -79 16 -93 0 -13 4 -24 9 -24 5 0 11 -14 15 -32 5 -24 9 -29
18 -20 8 8 8 19 -1 41 -9 21 -10 35 -3 48 10 17 11 16 21 -7 9 -23 10 -24 10
-3 1 12 5 23 10 25 5 2 11 31 14 66 2 34 2 60 -1 57 -13 -12 -45 62 -43 99 3
50 -17 142 -39 183 -15 29 -17 52 -12 162 3 84 1 134 -6 147 -10 17 -11 16
-12 -10 0 -29 0 -29 -17 -10 -32 34 -41 86 -41 224 0 124 1 132 14 105 l14
-30 -7 35 c-6 34 -8 64 -12 185 -2 55 -3 58 -15 36 -12 -22 -13 -22 -21 -5
-10 25 -15 294 -5 319 8 22 22 151 24 220 1 33 -2 40 -18 38 -17 -1 -18 5 -13
80 3 45 13 146 23 224 10 79 15 145 12 148 -2 3 -24 8 -48 11 -37 5 -42 4 -37
-10z m27 -1137 c18 -32 23 -196 7 -202 -10 -4 -12 8 -9 52 2 31 -1 67 -7 81
-10 22 -11 20 -7 -17 2 -24 -1 -43 -5 -43 -10 0 -12 58 -3 113 8 43 9 44 24
16z m9 -406 c-2 -31 -3 -33 -6 -10 -2 15 -10 27 -16 27 -10 0 10 19 21 20 1 0
1 -17 1 -37z m151 -512 c0 -29 -7 -25 -14 9 -3 14 -8 36 -11 50 -4 22 -3 21 9
-5 9 -16 15 -41 16 -54z m20 -109 c9 -57 9 -75 -3 -103 l-14 -34 0 65 c1 36
-2 82 -6 103 -5 22 -4 37 2 37 5 0 14 -31 21 -68z"/>
<path d="M9670 7187 c0 -9 6 -22 14 -30 8 -8 16 -27 19 -43 2 -16 18 -85 35
-154 26 -103 33 -158 40 -310 7 -135 14 -195 26 -220 16 -34 16 -31 11 95 -3
72 -12 161 -20 200 -8 38 -15 119 -15 178 0 128 -17 247 -36 247 -7 0 -26 12
-43 26 -23 19 -31 22 -31 11z"/>
<path d="M4995 7108 c-13 -79 -13 -88 -4 -93 5 -4 9 11 10 32 0 21 3 50 5 66
3 15 2 27 0 27 -3 0 -8 -15 -11 -32z"/>
<path d="M8660 7044 c0 -6 -18 -29 -40 -53 -22 -23 -40 -39 -40 -35 0 3 -10
-6 -22 -22 -12 -16 -46 -55 -75 -86 -130 -138 -131 -288 -3 -400 25 -22 45
-44 45 -48 0 -5 4 -12 9 -17 5 -5 6 -3 2 5 -10 17 -10 17 75 -25 51 -26 74
-43 71 -52 -3 -8 0 -11 7 -7 6 4 11 3 11 -2 0 -5 -11 -14 -24 -22 -22 -11 -32
-8 -102 29 -63 34 -92 44 -147 48 -87 8 -120 -7 -106 -46 24 -63 131 -149 212
-170 75 -20 84 -37 23 -46 -54 -8 -156 2 -156 16 0 5 -8 9 -17 9 -32 0 -171
165 -196 232 -11 31 58 68 128 68 44 0 44 0 34 28 -6 15 -17 60 -24 101 -13
71 -12 77 9 125 13 29 35 72 50 96 l27 45 -30 -35 c-16 -19 -38 -53 -47 -75
-40 -94 -46 -105 -65 -115 -15 -9 -33 -6 -77 10 -115 44 -152 50 -336 52
l-181 3 -110 -65 c-60 -36 -133 -85 -161 -110 -130 -115 -182 -157 -262 -215
-48 -34 -107 -72 -132 -86 -25 -13 -47 -27 -51 -31 -8 -12 -127 -58 -149 -58
-11 0 -43 -15 -73 -34 -46 -30 -65 -35 -161 -45 -165 -18 -252 3 -294 71 -12
18 -41 53 -66 77 -35 34 -43 48 -34 58 10 12 0 18 -24 14 -5 0 -8 3 -8 9 0 5
-17 12 -37 16 -21 3 -48 12 -60 20 -36 22 -72 18 -176 -19 -15 -5 -62 -47
-106 -92 -114 -121 -124 -172 -62 -312 29 -67 56 -102 103 -134 l23 -17 -25
-47 c-14 -25 -35 -65 -47 -88 -12 -23 -30 -73 -39 -112 -9 -38 -21 -78 -26
-89 -7 -12 -6 -16 1 -11 8 4 10 -25 7 -97 -4 -91 -8 -111 -36 -168 -39 -79
-71 -115 -131 -146 -68 -34 -116 -94 -130 -163 -33 -162 -137 -404 -190 -442
-21 -15 -29 -27 -26 -41 3 -10 1 -33 -3 -51 -5 -17 -11 -54 -15 -81 -3 -29
-13 -55 -23 -62 -15 -12 -9 -14 38 -14 58 -2 66 -3 139 -19 25 -6 69 -12 96
-14 41 -3 52 -8 62 -28 11 -20 10 -26 -4 -36 -15 -12 -15 -13 -1 -13 9 0 28
-23 43 -52 15 -29 37 -67 49 -84 22 -31 179 -174 192 -174 4 0 40 -31 79 -70
52 -49 69 -72 61 -80 -8 -8 -4 -12 12 -16 12 -4 22 -13 22 -20 0 -8 7 -17 15
-20 8 -4 15 -10 15 -16 0 -5 25 -34 55 -64 30 -31 55 -59 55 -64 0 -4 33 -34
73 -66 39 -33 78 -67 85 -77 7 -9 25 -23 40 -31 15 -8 56 -44 92 -81 72 -73
188 -150 323 -213 102 -48 147 -78 147 -98 0 -11 -7 -13 -27 -8 -22 5 -17 -1
21 -25 26 -18 53 -30 60 -28 6 2 -5 12 -24 22 -19 10 -30 20 -23 22 14 5 73
-24 73 -35 0 -5 24 -16 53 -26 28 -10 72 -29 97 -41 25 -12 65 -31 90 -41 72
-29 92 -44 79 -60 -6 -7 -20 -16 -31 -20 -28 -9 -115 -64 -100 -64 6 0 24 5
39 11 15 6 37 15 48 19 11 5 47 21 80 36 59 27 61 27 106 10 67 -23 69 -20 14
17 -105 70 -152 97 -166 97 -15 0 -256 118 -292 143 -16 11 -54 32 -85 48 -31
16 -64 33 -72 38 -8 5 -39 21 -67 35 -53 26 -151 92 -272 183 -58 43 -112 90
-258 226 -24 21 -43 47 -43 57 0 10 -21 35 -47 56 -50 41 -99 88 -223 220
-124 130 -193 206 -230 254 -19 24 -47 58 -61 75 -14 16 -47 66 -74 110 -45
75 -48 85 -51 158 -3 83 19 195 42 213 7 6 11 14 8 17 -11 10 96 190 127 215
34 27 175 78 241 87 38 5 77 26 198 108 84 56 161 107 172 114 25 13 51 57
113 183 62 126 74 161 76 225 2 56 12 85 26 71 4 -4 9 -53 10 -108 2 -83 -1
-109 -18 -147 -21 -49 -69 -124 -82 -130 -11 -4 23 -41 38 -41 7 0 20 -11 29
-25 9 -14 21 -25 27 -25 6 0 24 -11 41 -25 16 -14 36 -25 44 -25 8 0 49 -24
92 -53 110 -75 109 -75 153 -28 l36 41 114 -1 c102 0 120 -3 179 -29 85 -37
90 -38 195 -50 138 -16 141 -17 214 -78 29 -25 49 -37 43 -26 -5 10 -18 36
-28 56 -10 21 -53 72 -96 114 -44 41 -86 87 -95 100 -27 42 -4 40 40 -3 64
-63 123 -113 134 -113 21 0 74 -69 103 -135 35 -78 64 -112 164 -192 74 -61
102 -106 112 -190 5 -34 17 -61 41 -90 44 -55 53 -103 24 -132 -11 -11 -18
-22 -13 -22 20 -5 42 -6 95 -8 36 0 56 -5 52 -11 -3 -5 -14 -10 -24 -10 -10 0
-26 -8 -35 -19 -16 -18 -15 -18 30 -13 26 3 55 12 65 21 38 34 46 38 104 45
80 9 111 25 107 56 -4 35 -73 141 -104 159 -37 22 -172 126 -184 143 -20 24
-26 51 -10 45 11 -4 12 2 5 31 -4 20 -6 39 -3 44 3 4 -4 25 -16 47 -11 22 -20
47 -20 56 0 8 -4 15 -10 15 -5 0 -6 -7 -3 -17 4 -11 3 -14 -5 -9 -7 4 -12 14
-12 22 0 8 -4 14 -10 14 -5 0 -14 18 -20 41 -6 22 -28 59 -48 82 -20 23 -43
50 -51 60 -8 9 -22 63 -32 118 -17 99 -17 102 3 160 23 69 44 80 34 18 -8 -51
4 -44 31 18 94 216 107 258 94 313 -23 94 -46 140 -102 206 -57 67 -101 134
-114 173 -6 19 -5 19 34 0 55 -26 178 -151 221 -224 34 -57 35 -63 37 -170 1
-69 -4 -131 -13 -167 -14 -54 -76 -169 -114 -213 -10 -11 -23 -37 -30 -57 -10
-32 -9 -40 3 -53 9 -8 23 -36 33 -62 47 -128 53 -134 95 -86 13 14 51 54 84
88 33 34 86 90 119 124 32 33 65 61 73 61 8 0 12 4 8 9 -3 5 0 13 5 16 6 4 15
18 20 31 5 13 16 24 24 24 8 0 23 11 33 24 18 23 67 65 150 132 21 17 70 43
108 58 39 16 91 37 118 47 l47 19 60 -55 c80 -73 137 -100 197 -91 51 7 116
41 148 77 l20 22 -25 -7 c-14 -5 -33 -8 -42 -9 -10 -1 -18 -5 -18 -9 0 -4 -5
-8 -11 -8 -5 0 -7 5 -4 10 9 14 -8 13 -23 -2 -9 -9 -12 -9 -12 2 0 13 -2 13
-9 1 -8 -12 -17 -11 -62 3 -65 22 -105 49 -112 76 -7 26 12 26 63 0 22 -11 40
-18 40 -15 0 3 9 1 21 -5 11 -7 42 -14 67 -17 26 -3 53 -9 60 -15 8 -7 12 -7
12 0 0 6 6 9 14 6 7 -3 29 1 48 9 69 29 92 136 44 206 -27 40 -44 93 -52 162
-5 35 0 59 20 107 27 65 32 129 17 210 l-9 43 37 -2 c45 -3 101 9 101 23 0 5
10 9 23 7 33 -2 85 12 98 27 6 8 15 11 20 8 5 -3 8 -2 7 3 -1 4 13 24 32 44
94 97 120 195 88 322 -11 45 -28 81 -48 103 -16 19 -31 42 -32 52 -1 9 -4 -46
-7 -124 l-6 -141 -39 -48 c-47 -57 -87 -75 -169 -77 -88 -1 -138 9 -210 44
-34 17 -89 43 -122 58 -62 28 -215 65 -320 76 -33 4 -68 11 -77 16 -28 14 -21
-7 7 -26 14 -9 30 -14 35 -11 6 4 21 -2 35 -13 l25 -20 -30 -5 c-67 -14 -210
86 -210 146 0 12 22 66 49 122 61 127 105 235 97 242 -3 4 -6 2 -6 -3z m-770
-479 c0 -20 -177 -72 -192 -57 -13 13 64 43 132 52 30 4 56 8 58 9 1 0 2 -1 2
-4z m-315 -85 c3 -5 0 -8 -7 -5 -7 3 -56 -36 -108 -85 -70 -66 -108 -94 -143
-106 -27 -9 -51 -14 -53 -11 -6 6 104 96 206 169 65 47 93 57 105 38z m1305
-285 c35 -18 41 -26 89 -118 61 -116 60 -145 -6 -109 -12 7 -33 12 -46 12 -40
0 -123 40 -137 65 -22 41 -8 45 64 19 38 -13 72 -22 75 -19 7 7 -90 105 -104
105 -7 0 -21 10 -33 23 -43 45 24 60 98 22z m-2828 -47 c13 -9 49 -39 80 -67
31 -28 59 -51 62 -51 4 0 29 -18 57 -40 28 -22 56 -40 62 -40 31 -1 -25 -18
-78 -24 -124 -14 -188 -44 -274 -128 -62 -61 -74 -68 -88 -57 -46 38 -97 165
-95 233 5 126 179 236 274 174z m2498 -280 c29 -107 74 -170 158 -219 31 -18
44 -49 20 -49 -50 1 -135 51 -169 98 -45 65 -59 112 -47 165 5 26 14 47 18 47
5 0 14 -19 20 -42z m-1969 -37 c-8 -5 -20 -7 -28 -4 -21 8 -15 13 15 13 20 0
23 -3 13 -9z m2339 -96 c-7 -9 -15 -13 -18 -10 -3 2 1 11 8 20 7 9 15 13 18
10 3 -2 -1 -11 -8 -20z m232 -55 c22 -45 22 -43 -7 -74 -19 -21 -31 -26 -48
-20 -30 9 -46 33 -47 68 0 70 72 88 102 26z m-3124 -14 c-8 -6 -18 -18 -21
-26 -4 -8 -4 -2 -1 15 3 16 11 36 17 44 10 12 13 11 16 -4 2 -10 -3 -23 -11
-29z m1188 -33 c-11 -11 -19 6 -11 24 8 17 8 17 12 0 3 -10 2 -21 -1 -24z m8
-80 c3 -16 8 -48 11 -73 4 -25 16 -79 27 -120 11 -41 25 -93 30 -115 6 -22 15
-45 20 -52 5 -6 11 -33 13 -60 4 -44 3 -46 -10 -28 -8 11 -19 26 -25 32 -28
33 -102 193 -106 228 -2 21 -7 48 -10 58 -7 22 24 157 36 157 5 0 11 -12 14
-27z m1032 0 c-8 -8 -36 5 -36 17 0 7 6 7 21 0 11 -7 18 -14 15 -17z m-548
-15 c35 6 17 -13 -20 -22 -23 -5 -28 -3 -28 12 0 24 14 39 18 19 2 -9 12 -13
30 -9z m92 11 c0 -4 -13 -9 -30 -11 -21 -3 -30 0 -30 9 0 9 10 13 30 11 17 -1
30 -5 30 -9z m742 -30 c16 -8 22 -8 29 2 4 7 10 11 13 8 12 -12 -69 -80 -108
-91 -23 -6 -62 -26 -87 -45 -52 -37 -68 -42 -48 -15 7 9 1 6 -14 -7 -26 -24
-27 -24 -27 -4 0 28 90 109 153 138 61 28 62 28 89 14z m-2632 -84 c0 -8 5
-15 11 -15 6 0 8 -9 4 -22 -5 -21 -5 -21 9 2 18 30 20 16 5 -29 -12 -33 -32
-40 -55 -17 -17 17 -18 49 -4 77 13 23 30 25 30 4z m187 -96 c0 -24 -2 -27
-10 -14 -5 9 -6 23 -3 31 8 22 13 17 13 -17z m973 11 c0 -5 11 -10 25 -10 32
0 34 -27 3 -39 -17 -7 -26 -5 -36 7 -7 10 -18 16 -23 15 -13 -4 -11 11 3 25
15 15 28 16 28 2z m-256 -268 c2 -4 -2 -16 -10 -27 -13 -18 -14 -18 -14 8 0
25 13 36 24 19z m816 -32 c0 -13 -29 -20 -36 -8 -4 7 -3 8 4 4 7 -4 12 -1 12
9 0 9 5 13 10 10 6 -3 10 -10 10 -15z m-422 -81 c2 -13 -3 -15 -22 -12 -16 3
-23 10 -19 20 7 18 37 13 41 -8z"/>
<path d="M4979 6950 c-7 -35 -4 -48 7 -38 3 4 4 21 2 40 l-3 33 -6 -35z"/>
<path d="M7430 6762 c0 -4 12 -9 26 -10 41 -3 102 -21 109 -32 3 -6 17 -10 30
-10 34 0 40 -17 13 -41 -25 -22 -22 -22 36 5 21 9 51 19 66 21 28 3 115 53
107 61 -2 2 -26 -6 -53 -20 -27 -13 -64 -27 -82 -30 -30 -5 -32 -4 -18 10 22
21 20 27 -6 18 -35 -11 -83 -5 -130 16 -44 20 -98 27 -98 12z"/>
<path d="M8000 6700 c0 -5 9 -10 21 -10 11 0 17 5 14 10 -3 6 -13 10 -21 10
-8 0 -14 -4 -14 -10z"/>
<path d="M8197 6676 c-6 -14 0 -26 14 -26 8 0 6 26 -3 35 -3 3 -8 -1 -11 -9z"/>
<path d="M7367 6582 c-25 -22 -68 -54 -96 -72 -28 -19 -49 -35 -47 -37 8 -8
62 26 118 75 31 27 63 52 70 55 7 2 10 7 7 11 -4 4 -27 -11 -52 -32z"/>
<path d="M8985 6595 c17 -8 39 -14 50 -14 13 0 8 5 -15 14 -46 18 -74 17 -35
0z"/>
<path d="M6430 6573 c0 -5 9 -18 20 -28 11 -10 20 -14 20 -8 0 5 -9 18 -20 28
-11 10 -20 14 -20 8z"/>
<path d="M9493 6521 c-13 -11 -49 -27 -80 -38 -39 -12 -51 -19 -36 -21 27 -4
103 30 127 57 24 26 18 26 -11 2z"/>
<path d="M5333 6433 c9 -9 20 -13 24 -9 4 4 1 11 -7 16 -25 16 -35 11 -17 -7z"/>
<path d="M7088 6392 c-21 -15 -37 -31 -38 -35 0 -10 77 32 92 50 19 23 -14 13
-54 -15z"/>
<path d="M5179 6384 c-3 -10 -2 -37 1 -59 l6 -40 5 42 c5 48 -4 92 -12 57z"/>
<path d="M9803 6384 c3 -4 2 -15 -3 -25 -7 -11 -7 -20 -1 -24 6 -3 8 -34 4
-73 -8 -96 -9 -262 -2 -262 12 0 23 106 22 210 -2 147 -5 180 -16 180 -6 0 -7
-3 -4 -6z"/>
<path d="M9685 6330 c-4 -17 -10 -28 -15 -25 -4 2 -10 -9 -14 -26 -3 -17 -10
-28 -15 -25 -11 7 -24 -76 -20 -131 1 -21 -1 -58 -5 -83 -4 -25 -9 -79 -11
-120 -2 -41 -6 -86 -9 -100 -3 -14 -10 -71 -15 -127 -5 -56 -13 -108 -17 -115
-5 -7 -7 -23 -6 -35 2 -12 -1 -48 -7 -80 -6 -32 -13 -78 -16 -103 -8 -55 -30
-138 -55 -205 -23 -61 -30 -99 -35 -188 -2 -37 -8 -82 -14 -100 -6 -18 -12
-43 -15 -57 -4 -26 -53 -160 -79 -220 -53 -118 -71 -155 -83 -168 -8 -7 -16
-25 -20 -40 -3 -15 -16 -49 -29 -77 -13 -27 -32 -70 -41 -95 -20 -49 -41 -89
-123 -231 -80 -138 -94 -158 -114 -156 -16 1 -16 3 -3 13 9 6 14 13 11 15 -2
3 14 38 36 79 67 128 103 205 113 245 2 11 7 30 11 43 4 13 2 22 -4 22 -6 0
-11 -7 -11 -15 0 -21 -61 -155 -71 -155 -5 0 -6 -7 -3 -15 4 -8 1 -15 -5 -15
-7 0 -15 -8 -19 -18 -18 -45 -150 -268 -172 -292 -18 -19 -34 -27 -55 -26 -34
2 -82 -40 -90 -79 -3 -14 -7 -37 -10 -51 -4 -16 -2 -23 5 -19 20 12 10 -7 -34
-63 -56 -73 -170 -182 -190 -182 -8 0 -34 -20 -58 -43 -24 -24 -63 -57 -88
-73 -44 -28 -95 -67 -136 -103 -44 -39 -108 -81 -124 -81 -22 0 -125 -56 -114
-62 5 -3 3 -3 -4 -2 -16 4 -177 -69 -186 -85 -4 -6 -16 -11 -27 -11 -11 0 -18
-4 -15 -9 4 -5 -9 -22 -26 -37 -18 -15 -32 -33 -30 -40 1 -7 -13 -17 -35 -23
-47 -13 -63 -14 -63 -2 0 5 6 12 13 15 6 3 2 3 -10 1 -12 -3 -24 -1 -28 5 -3
5 -23 10 -43 10 -46 0 -158 50 -140 63 9 6 8 7 -4 3 -22 -7 -91 17 -126 44
-46 36 -212 140 -222 140 -6 0 -10 3 -10 8 0 4 -17 16 -37 27 -20 11 -45 29
-55 39 -13 15 -18 16 -18 5 1 -23 52 -75 96 -97 22 -11 47 -28 54 -37 8 -10
23 -21 35 -26 11 -5 43 -22 70 -39 28 -16 60 -35 73 -41 12 -7 22 -15 22 -19
0 -10 -64 12 -84 29 -9 7 -31 17 -49 21 -17 4 -31 11 -30 16 0 5 -11 18 -25
28 l-27 20 19 -22 c31 -36 13 -34 -29 3 -71 62 -81 70 -86 70 -2 0 -18 12 -34
28 -16 15 -33 27 -38 27 -8 0 -167 119 -167 125 0 3 8 2 18 -2 21 -7 17 -4
-64 65 -33 29 -65 52 -70 52 -5 0 -25 11 -44 23 -19 13 -41 22 -48 20 -7 -3
-18 9 -25 26 -7 16 -63 83 -124 148 -141 151 -170 185 -217 256 -20 33 -62 83
-92 112 -30 30 -54 58 -54 64 0 6 -7 11 -15 11 -8 0 -15 3 -15 8 -1 13 -40 58
-40 45 0 -6 6 -18 13 -25 6 -8 17 -23 23 -33 5 -11 21 -38 34 -60 l24 -40 -24
20 c-60 50 -94 101 -166 246 -26 52 -46 128 -37 143 3 5 2 6 -4 3 -5 -3 -16 2
-25 12 -20 24 -68 143 -68 171 0 12 -4 19 -9 16 -5 -3 -12 1 -15 10 -4 9 -9
15 -11 12 -3 -3 2 -21 10 -41 8 -20 15 -60 15 -90 0 -29 5 -58 11 -64 8 -8 8
-17 -1 -33 -6 -12 -9 -29 -6 -38 5 -13 2 -12 -9 2 -8 11 -15 25 -15 30 -1 6
-5 30 -9 53 -5 23 -5 40 -1 38 11 -7 21 40 14 59 -3 8 -12 12 -20 9 -10 -4
-14 3 -14 23 0 16 -4 35 -9 43 -7 11 -12 4 -20 -26 -13 -47 6 -132 54 -247 8
-19 8 -19 -17 0 -14 10 -24 22 -21 26 2 5 -3 18 -12 30 l-17 23 7 -24 c5 -16
4 -21 -4 -17 -6 4 -11 2 -11 -3 0 -6 4 -11 8 -11 5 0 14 -11 20 -25 6 -14 19
-25 27 -25 8 0 21 -12 27 -27 7 -16 17 -35 24 -43 6 -8 30 -51 53 -95 48 -93
77 -133 87 -122 4 4 -1 16 -10 26 -12 13 -15 25 -9 34 7 12 14 10 43 -14 21
-18 27 -27 15 -23 -15 5 -12 -1 13 -27 17 -19 32 -43 32 -52 0 -17 -2 -17 -27
0 -31 18 -31 19 98 -122 31 -33 78 -85 105 -115 27 -30 58 -62 69 -71 11 -9
34 -30 51 -47 18 -17 44 -38 58 -47 14 -10 23 -22 19 -29 -3 -6 -3 -8 1 -4 5
4 20 -4 35 -18 31 -29 138 -116 201 -165 25 -19 47 -39 50 -44 3 -6 8 -9 12
-8 3 1 12 -4 18 -12 7 -8 17 -15 23 -15 5 0 28 -15 51 -33 23 -18 59 -44 81
-58 22 -13 47 -28 56 -34 9 -5 45 -25 80 -44 35 -18 95 -51 132 -73 37 -22 94
-48 125 -59 31 -11 84 -36 117 -55 33 -20 69 -37 80 -39 11 -2 64 -19 117 -39
54 -20 105 -33 114 -29 10 4 15 2 11 -3 -8 -13 58 -10 75 3 7 6 31 16 53 23
22 7 68 25 103 41 34 15 62 24 62 18 0 -5 -4 -9 -10 -9 -5 0 -10 -5 -10 -11 0
-12 48 14 66 37 6 7 55 36 110 64 174 87 256 136 314 185 36 30 80 48 80 32 0
-6 -5 -19 -10 -27 -8 -12 -10 -12 -10 -1 0 9 -8 5 -22 -10 -13 -14 -69 -57
-124 -97 -56 -40 -108 -79 -115 -88 -13 -16 142 77 176 105 11 9 32 23 48 31
15 7 27 17 27 22 0 4 6 8 13 8 7 0 20 9 30 20 9 11 26 20 36 20 11 0 22 4 26
9 3 5 27 18 53 27 26 10 62 29 81 41 19 13 51 28 72 33 22 6 39 15 39 20 0 5
7 7 15 4 8 -3 22 1 30 10 9 9 22 16 29 16 13 0 145 131 225 223 27 33 89 116
136 185 47 70 106 154 131 187 24 33 48 70 54 83 6 14 15 20 22 16 6 -4 8 -3
4 4 -8 13 28 85 61 120 13 14 28 43 34 66 6 23 14 45 17 50 3 5 0 6 -6 2 -14
-8 -5 17 34 100 14 30 24 64 21 75 -3 10 -1 22 4 25 5 3 9 18 9 33 0 15 3 31
8 35 4 4 7 11 8 14 2 25 17 72 23 72 3 0 12 30 19 67 7 37 17 70 21 73 4 3 11
23 15 45 4 22 13 63 21 90 39 144 81 345 92 445 2 25 10 57 17 71 9 18 10 32
3 44 -5 10 -7 49 -3 95 5 51 4 80 -3 85 -12 7 -13 4 -17 -35 -6 -60 -11 -87
-18 -98 -4 -7 -5 -15 -3 -19 3 -5 -1 -44 -8 -88 -7 -44 -11 -96 -10 -115 1
-19 -1 -44 -5 -55 -4 -11 -13 -49 -20 -85 -6 -36 -22 -99 -36 -140 -13 -41
-24 -84 -24 -95 0 -11 -7 -33 -15 -48 -8 -15 -10 -25 -5 -22 13 8 12 -11 -1
-58 -5 -21 -14 -35 -19 -32 -4 3 -6 -3 -3 -14 2 -10 -7 -43 -20 -72 -14 -30
-28 -70 -32 -89 -4 -19 -13 -45 -21 -58 -8 -12 -12 -28 -8 -34 4 -7 3 -8 -4
-4 -8 4 -12 0 -12 -12 0 -25 -30 -112 -39 -112 -4 0 -7 -8 -8 -17 -8 -96 -205
-448 -303 -541 -10 -9 -28 -33 -41 -52 -36 -53 -112 -141 -117 -135 -3 2 -18
-16 -34 -40 -16 -24 -46 -58 -66 -75 -20 -17 -55 -48 -77 -69 -51 -49 -133
-104 -144 -97 -5 3 -24 -4 -42 -17 -19 -12 -45 -23 -58 -24 -13 -1 -32 -10
-42 -19 -11 -9 -22 -15 -25 -11 -12 12 18 46 97 113 97 81 161 144 197 193 50
68 114 141 124 141 32 0 113 90 147 165 18 41 20 44 71 116 24 35 57 89 73
119 16 30 35 62 41 70 7 8 28 42 48 75 34 57 44 80 53 122 2 10 13 43 25 73
12 30 29 75 37 100 9 25 20 50 26 55 7 7 8 4 4 -8 -4 -11 -3 -16 4 -12 6 4 8
14 5 22 -3 8 5 35 18 61 13 26 38 90 55 142 18 52 35 102 38 110 3 8 8 26 10
40 2 14 15 71 29 128 14 57 24 106 21 109 -7 6 -27 -64 -27 -93 0 -25 -58
-144 -70 -144 -10 0 -2 66 11 92 5 9 9 30 9 46 0 34 33 133 54 163 13 20 14
20 18 2 4 -16 43 127 53 196 26 164 46 324 50 404 3 54 11 126 19 160 21 91
31 215 17 201 -6 -6 -14 -40 -18 -77 -3 -41 -10 -64 -16 -60 -6 4 -8 -3 -4
-18 7 -27 -2 -99 -13 -99 -8 0 -3 102 11 210 5 41 11 100 13 130 2 30 7 85 11
123 8 68 2 91 -10 37z m-62 -804 c-3 -20 -10 -33 -14 -29 -5 5 -3 23 3 41 15
40 19 36 11 -12z m-39 -300 c-3 -21 -9 -35 -11 -32 -3 3 -2 21 1 42 4 20 10
34 12 31 3 -3 2 -21 -2 -41z m-118 -453 c-3 -21 -22 -69 -36 -98 -11 -22 -11
-21 13 73 10 40 31 62 23 25z m-66 -169 c-10 -21 -19 -35 -20 -31 0 14 30 80
35 75 3 -2 -4 -22 -15 -44z m-3340 -926 c36 -42 107 -122 159 -177 51 -56 89
-101 83 -101 -28 0 -217 183 -231 223 -2 7 -26 37 -53 66 -26 30 -48 59 -48
63 0 21 30 -4 90 -74z m2600 -261 c0 -2 -10 -12 -21 -23 -22 -19 -22 -19 -10
4 10 18 31 31 31 19z m-2310 -47 c13 -11 21 -22 18 -25 -2 -3 -15 6 -28 20
-28 30 -22 33 10 5z m2200 -60 c-6 -11 -16 -20 -22 -20 -6 0 -3 9 7 20 10 11
20 20 22 20 2 0 -1 -9 -7 -20z m-42 -54 c-10 -7 -18 -17 -18 -22 0 -11 -79
-84 -91 -84 -4 0 -20 -11 -35 -25 -20 -18 -31 -22 -38 -15 -8 8 -6 13 4 20 44
25 87 60 123 98 22 23 47 42 56 42 14 -1 14 -2 -1 -14z"/>
<path d="M5530 6338 c0 -7 5 -20 10 -28 8 -12 10 -11 10 7 0 12 -4 25 -10 28
-5 3 -10 0 -10 -7z"/>
<path d="M7080 6294 c-36 -29 -99 -71 -140 -93 -41 -22 -86 -52 -100 -66 -23
-25 -21 -25 30 7 30 20 79 47 108 62 28 14 52 31 52 36 0 6 6 10 13 10 6 1 37
23 67 50 74 67 52 62 -30 -6z"/>
<path d="M6958 6312 c-30 -18 -39 -39 -10 -23 29 16 58 40 47 40 -5 0 -22 -7
-37 -17z"/>
<path d="M5910 6313 c-14 -3 -29 -9 -35 -15 -13 -12 46 1 60 13 5 5 7 8 5 8
-3 -1 -16 -4 -30 -6z"/>
<path d="M5186 6244 c-4 -20 -5 -38 -3 -40 3 -3 8 11 11 32 4 20 5 38 3 40 -3
3 -8 -11 -11 -32z"/>
<path d="M6822 6226 c-12 -6 -20 -17 -17 -23 2 -7 -2 -13 -10 -13 -8 0 -37
-16 -64 -35 -96 -69 -209 -100 -271 -75 -17 7 -33 10 -37 7 -12 -13 55 -30
112 -28 69 2 136 29 220 90 43 30 112 97 93 90 -2 -1 -13 -6 -26 -13z"/>
<path d="M9700 6206 c0 -8 -3 -22 -7 -32 -4 -12 -3 -15 5 -10 12 7 16 -5 12
-34 -1 -12 1 -12 10 -3 8 7 10 24 6 47 -7 36 -26 60 -26 32z"/>
<path d="M9470 6190 c-8 -5 -45 -10 -82 -10 l-68 0 11 -27 c6 -16 10 -29 10
-30 -10 -34 34 -73 81 -73 48 0 128 71 100 89 -6 3 -14 19 -17 34 -8 29 -12
32 -35 17z"/>
<path d="M6370 6145 c19 -7 60 -13 90 -13 l55 0 -70 13 c-91 17 -120 17 -75 0z"/>
<path d="M5622 6085 c-7 -14 -12 -42 -12 -62 0 -43 7 -41 11 2 2 17 8 36 13
44 13 17 17 41 7 41 -4 0 -13 -11 -19 -25z"/>
<path d="M9329 5997 c-9 -34 -19 -71 -23 -82 -6 -13 0 -10 17 10 14 17 27 48
31 74 9 69 -7 67 -25 -2z"/>
<path d="M9481 5947 c0 -18 3 -25 6 -17 3 8 10 20 15 26 5 8 3 14 -7 18 -12 4
-15 -2 -14 -27z"/>
<path d="M9797 5957 c-4 -10 -7 -28 -7 -40 1 -20 2 -20 11 -4 6 10 9 28 7 40
-3 20 -4 20 -11 4z"/>
<path d="M4952 5895 c-1 -38 6 -99 14 -135 21 -89 41 -187 49 -235 6 -32 9
-36 16 -22 6 9 7 21 4 27 -3 5 -12 46 -20 90 -8 44 -22 117 -31 163 -8 45 -19
105 -23 132 l-9 50 0 -70z"/>
<path d="M5627 5908 c-5 -13 14 -48 26 -48 8 0 -1 42 -11 52 -6 6 -12 4 -15
-4z"/>
<path d="M5201 5900 c0 -8 4 -24 9 -35 l9 -20 0 20 c0 11 -4 27 -9 35 -9 13
-10 13 -9 0z"/>
<path d="M9896 5818 c-49 -237 -72 -436 -45 -393 12 19 12 19 19 0 5 -15 10
-5 17 35 5 32 5 58 0 61 -5 4 -4 38 2 80 11 80 22 239 15 239 -2 0 -6 -10 -8
-22z"/>
<path d="M9745 5738 c-10 -27 -10 -128 0 -125 5 2 10 20 10 40 0 33 14 55 16
25 0 -7 5 2 11 21 7 26 6 36 -4 42 -18 12 -28 11 -33 -3z"/>
<path d="M5616 5694 c-8 -31 -9 -30 27 -39 17 -5 27 -3 27 4 0 6 -4 11 -10 11
-5 0 -12 11 -16 25 -8 32 -20 32 -28 -1z"/>
<path d="M4882 5583 c16 -157 50 -344 77 -430 36 -111 100 -280 136 -358 44
-95 95 -225 95 -241 0 -8 7 -14 16 -14 14 0 16 7 9 53 -4 28 -8 64 -10 78 -1
14 -5 30 -8 36 -4 6 -9 31 -11 55 -3 23 -13 77 -24 118 -11 41 -26 107 -32
145 -7 39 -15 77 -17 85 -3 8 -7 24 -8 35 -9 60 -37 216 -44 241 -7 24 -10 26
-16 12 -4 -10 -14 -18 -22 -18 -11 0 -13 -4 -6 -12 21 -27 57 -174 82 -333 16
-102 41 -229 50 -256 5 -16 5 -32 0 -40 -8 -12 -10 -12 -8 1 2 16 -1 25 -32
99 -11 24 -19 51 -19 60 0 9 -6 23 -12 29 -10 10 -10 17 0 32 16 25 15 31 -2
24 -22 -8 -67 125 -95 281 -6 33 -14 74 -17 90 -3 17 -21 77 -40 135 -19 58
-34 120 -34 138 0 18 -4 32 -8 32 -5 0 -5 -35 0 -77z m308 -926 c0 -18 -2 -19
-10 -7 -13 20 -13 43 0 35 6 -3 10 -16 10 -28z"/>
<path d="M5660 5509 c-19 -44 -27 -79 -13 -65 11 11 43 99 38 104 -3 3 -14
-15 -25 -39z"/>
<path d="M8870 5425 c0 -3 9 -14 20 -25 19 -19 36 -14 22 6 -8 11 -42 26 -42
19z"/>
<path d="M8534 5301 c-27 -27 -78 -81 -114 -121 -36 -40 -75 -77 -87 -83 -28
-13 -30 -37 -3 -37 32 0 126 -39 145 -60 19 -21 54 -26 71 -11 14 13 94 30 94
20 0 -5 -4 -9 -10 -9 -5 0 -10 -6 -10 -14 0 -8 -5 -16 -11 -18 -6 -2 -13 -29
-14 -60 -4 -67 -33 -113 -75 -121 -15 -4 -35 -13 -43 -22 -9 -8 -20 -15 -25
-15 -5 0 -15 -7 -22 -15 -7 -9 -15 -13 -18 -11 -2 3 -13 -5 -23 -17 -14 -16
-17 -17 -13 -4 4 11 1 17 -9 17 -19 0 -77 -65 -78 -88 -1 -9 -3 -48 -5 -85 -1
-38 -8 -74 -14 -82 -7 -8 -7 -15 -1 -19 5 -4 14 2 20 11 8 14 12 15 19 5 7
-11 23 -11 78 -2 38 6 78 16 89 21 11 5 45 17 75 27 47 15 59 24 88 67 18 28
35 61 38 75 12 53 78 187 108 220 52 55 89 136 81 176 -3 19 -10 34 -15 34 -5
0 -7 6 -4 13 3 8 -2 20 -11 27 -8 7 -15 19 -15 27 0 8 -4 12 -9 8 -5 -3 -12
-1 -16 5 -3 5 -16 10 -28 10 -37 0 -120 45 -152 82 -25 29 -29 40 -24 66 4 18
3 32 -1 32 -4 0 -30 -22 -56 -49z"/>
<path d="M9793 5275 c0 -22 2 -30 4 -17 2 12 2 30 0 40 -3 9 -5 -1 -4 -23z"/>
<path d="M5380 5277 c0 -8 6 -14 14 -14 8 0 12 6 9 14 -3 7 -9 13 -14 13 -5 0
-9 -6 -9 -13z"/>
<path d="M5420 5193 c0 -12 5 -25 10 -28 13 -8 13 15 0 35 -8 12 -10 11 -10
-7z"/>
<path d="M8863 5156 c7 -6 22 -28 32 -48 9 -21 21 -38 25 -38 10 0 0 49 -11
56 -5 3 -9 13 -9 23 0 12 -8 17 -26 17 -20 0 -23 -2 -11 -10z"/>
<path d="M5590 5082 c0 -6 -9 -13 -19 -17 -17 -5 -38 -46 -23 -44 12 1 55 60
48 66 -3 4 -6 1 -6 -5z"/>
<path d="M9166 5004 c-8 -22 1 -31 16 -16 9 9 9 15 1 23 -7 7 -12 5 -17 -7z"/>
<path d="M9757 5013 c-4 -3 -7 -20 -7 -36 0 -16 -6 -35 -14 -41 -21 -16 -26
-136 -6 -136 6 0 9 3 9 8 -1 4 -1 18 1 32 1 23 2 23 10 5 6 -13 9 -15 9 -5 1
8 4 26 6 40 5 22 4 22 -4 5 -8 -17 -10 -17 -10 -3 -1 9 4 20 9 23 8 5 12 115
5 115 -1 0 -5 -3 -8 -7z"/>
<path d="M8193 4971 c-23 -21 -40 -41 -37 -44 4 -3 -3 -16 -15 -28 -12 -13
-21 -28 -21 -33 1 -6 13 4 28 23 15 19 44 50 65 69 36 34 46 52 29 52 -4 0
-27 -17 -49 -39z"/>
<path d="M6294 4950 c-53 -24 -93 -54 -67 -49 39 7 75 -46 63 -94 -11 -44 -36
-97 -61 -129 -20 -24 -20 -28 -5 -49 9 -13 16 -20 16 -16 0 4 31 -15 68 -42
38 -27 95 -63 128 -81 137 -76 274 -227 230 -252 -18 -10 -22 -38 -6 -38 6 0
10 6 10 14 0 30 25 36 53 14 23 -19 25 -24 13 -37 -8 -9 -17 -28 -21 -43 l-7
-26 164 -4 c126 -3 168 -1 186 10 18 10 27 11 38 1 11 -9 14 -7 14 10 0 44
-78 145 -134 173 -63 32 -224 141 -298 203 -54 44 -68 62 -68 84 0 29 41 98
84 144 23 23 24 27 9 26 -30 0 -103 -108 -103 -152 -1 -22 -1 -22 -16 -2 -8
11 -14 32 -11 47 2 15 0 25 -5 22 -4 -3 -8 -1 -8 5 0 5 9 13 21 16 11 4 28 20
38 36 10 16 21 26 24 22 9 -9 9 29 -1 43 -4 7 -34 32 -67 56 -171 125 -189
131 -281 88z"/>
<path d="M8858 4915 c-21 -24 -38 -47 -38 -52 0 -4 -14 -33 -32 -63 -30 -52
-43 -100 -27 -100 4 0 13 17 20 38 17 54 55 126 74 142 17 14 49 69 43 75 -2
2 -20 -16 -40 -40z"/>
<path d="M6093 4812 c-15 -21 -44 -51 -65 -67 -40 -32 -47 -45 -23 -45 19 0
100 82 121 121 21 42 -1 36 -33 -9z"/>
<path d="M6830 4824 c-13 -34 -13 -36 9 -25 10 6 21 20 24 31 8 30 -21 25 -33
-6z"/>
<path d="M6960 4847 c0 -4 19 -16 41 -28 29 -14 44 -17 49 -10 4 7 15 9 26 5
17 -6 18 -5 3 10 -14 16 -119 36 -119 23z"/>
<path d="M9683 4693 c-35 -109 -44 -153 -32 -153 5 0 1 -16 -8 -35 -9 -19 -21
-35 -26 -35 -4 0 -5 -9 -2 -20 5 -15 2 -20 -11 -20 -13 0 -15 -3 -7 -11 8 -8
6 -23 -8 -55 -10 -24 -18 -47 -18 -49 1 -13 -14 -71 -21 -80 -4 -5 -4 -19 0
-30 7 -18 9 -18 19 9 7 16 13 41 15 55 5 35 50 187 70 235 9 21 13 42 10 48
-6 10 8 52 36 108 21 43 30 89 21 113 -4 12 -17 -14 -38 -80z"/>
<path d="M7290 4770 c0 -4 16 -11 35 -17 25 -8 33 -8 28 0 -4 7 0 8 13 3 33
-14 74 -18 74 -7 0 5 -14 13 -32 16 -45 10 -118 13 -118 5z"/>
<path d="M6784 4719 c-3 -6 0 -18 9 -26 13 -13 15 -12 15 11 0 27 -12 34 -24
15z"/>
<path d="M5765 4684 c-22 -9 -53 -19 -70 -23 -19 -4 -31 -14 -33 -26 -2 -14 0
-16 6 -8 4 7 21 14 38 15 16 1 35 6 43 12 8 6 16 9 18 7 7 -6 63 21 63 30 0
13 -19 10 -65 -7z"/>
<path d="M8710 4638 c0 -7 5 -20 10 -28 8 -12 10 -9 10 13 0 15 -4 27 -10 27
-5 0 -10 -6 -10 -12z"/>
<path d="M6151 4588 c22 -42 129 -123 129 -98 0 9 -123 120 -134 120 -4 0 -1
-10 5 -22z"/>
<path d="M7630 4608 c0 -8 80 -128 86 -128 2 0 3 11 2 25 -2 21 -88 122 -88
103z"/>
<path d="M8917 4559 c-3 -13 -1 -19 6 -16 15 5 22 37 9 37 -5 0 -12 -9 -15
-21z"/>
<path d="M6419 4422 c5 -10 17 -24 25 -32 9 -7 16 -20 17 -29 0 -10 4 -6 10 9
9 21 6 28 -18 47 -34 28 -47 29 -34 5z"/>
<path d="M6890 4425 c0 -2 15 -12 33 -20 l32 -16 -24 21 c-22 19 -41 26 -41
15z"/>
<path d="M8687 4395 c-5 -10 0 -15 14 -15 12 0 19 5 17 12 -6 18 -25 20 -31 3z"/>
<path d="M5799 4238 c68 -82 105 -117 67 -65 -9 12 -23 36 -32 52 -9 17 -23
34 -30 38 -8 4 -14 15 -14 22 0 8 -8 15 -18 15 -10 0 -24 6 -32 13 -7 6 19
-27 59 -75z"/>
<path d="M7750 4305 c0 -11 43 -96 46 -92 5 5 -35 97 -41 97 -3 0 -5 -2 -5 -5z"/>
<path d="M7090 4285 c0 -6 12 -28 26 -50 25 -38 25 -39 19 -10 -6 28 -45 81
-45 60z"/>
<path d="M7879 4202 c5 -9 17 -26 25 -37 15 -19 15 -18 5 12 -6 17 -17 34 -25
37 -11 4 -12 2 -5 -12z"/>
<path d="M6551 4191 c-20 -5 -21 -8 -9 -18 22 -19 100 -21 105 -3 4 12 3 12
-5 1 -8 -11 -14 -9 -31 8 -22 22 -23 23 -60 12z"/>
<path d="M7771 4171 c-11 -7 -9 -10 8 -16 25 -8 36 -2 26 14 -8 13 -15 14 -34
2z"/>
<path d="M8445 4121 c-3 -6 -5 -11 -3 -12 27 -6 38 -5 35 4 -5 15 -24 20 -32
8z"/>
<path d="M7066 4075 c-10 -8 -23 -12 -27 -9 -5 3 -9 1 -9 -5 0 -16 37 -8 49
11 13 21 12 22 -13 3z"/>
<path d="M4986 4001 c-3 -5 -55 -12 -116 -16 -116 -8 -242 -31 -185 -35 17 -1
46 -4 65 -7 47 -7 35 -7 215 1 287 13 370 17 395 20 14 2 43 4 65 5 32 1 37 4
23 12 -9 5 -34 9 -55 8 -41 -2 -265 9 -350 16 -28 3 -54 1 -57 -4z"/>
<path d="M4595 3935 c-31 -11 -35 -14 -15 -14 14 0 36 6 50 14 30 17 18 17
-35 0z"/>
<path d="M6040 3905 c0 -9 149 -186 185 -220 132 -125 315 -281 315 -268 0 16
-263 271 -306 296 -8 5 -12 12 -9 18 4 5 1 9 -5 9 -12 0 -49 39 -50 52 0 12
-107 118 -119 118 -6 0 -11 -2 -11 -5z"/>
<path d="M5170 3865 c-164 -18 -222 -26 -216 -32 8 -9 290 17 341 31 64 18 32
18 -125 1z"/>
<path d="M8709 3856 c14 -17 51 -28 51 -15 0 10 -33 29 -51 29 -9 0 -9 -3 0
-14z"/>
<path d="M5640 3656 c0 -22 94 -135 105 -125 3 3 -4 17 -16 30 -12 13 -36 42
-55 63 -19 22 -34 36 -34 32z"/>
<path d="M6540 3594 c40 -48 250 -221 250 -205 0 7 -109 107 -145 133 -5 4
-37 29 -70 55 -46 36 -54 40 -35 17z"/>
<path d="M6680 3545 c13 -14 25 -23 28 -20 3 2 14 -1 26 -7 16 -8 14 -4 -8 21
-17 17 -39 31 -50 31 -18 0 -18 -1 4 -25z"/>
<path d="M8500 3445 c-36 -19 -97 -85 -79 -85 7 0 36 23 62 50 27 28 47 50 45
49 -2 -1 -14 -7 -28 -14z"/>
<path d="M5810 3410 c15 -29 47 -73 110 -151 25 -31 51 -65 58 -75 7 -10 3 0
-10 23 -36 66 -114 175 -143 203 l-28 25 13 -25z"/>
<path d="M8270 3286 c0 -10 28 -13 41 -5 10 6 7 9 -13 9 -16 0 -28 -2 -28 -4z"/>
<path d="M8256 3234 c-37 -32 -29 -40 9 -9 17 13 28 25 25 28 -3 3 -18 -6 -34
-19z"/>
<path d="M8035 3134 c-38 -36 -63 -62 -55 -58 31 16 120 87 120 96 0 5 4 7 8
4 5 -3 9 1 9 9 0 8 -3 15 -6 15 -3 0 -37 -30 -76 -66z"/>
<path d="M8610 3095 c-25 -25 -51 -45 -57 -45 -7 0 -13 -4 -13 -9 0 -11 -101
-89 -168 -129 -57 -35 -67 -38 -56 -19 4 7 3 9 -2 4 -5 -5 -9 -13 -9 -18 0 -5
-2 -8 -5 -7 -3 1 -41 -21 -85 -48 -44 -28 -105 -61 -135 -73 -30 -13 -66 -32
-79 -42 -13 -11 -32 -19 -42 -19 -10 0 -21 -5 -24 -10 -4 -6 -11 -7 -17 -4 -7
5 -9 2 -6 -8 4 -10 -5 -17 -33 -25 -21 -6 -39 -6 -39 -2 0 5 11 11 25 15 14 3
25 10 25 16 0 5 -4 7 -9 4 -15 -10 -66 -29 -86 -33 -10 -2 -29 -10 -40 -17
-51 -33 -223 -38 -282 -8 -10 5 -41 20 -69 32 -43 19 -51 26 -47 44 4 15 2 17
-5 7 -7 -10 -14 -10 -30 -2 -11 6 -28 11 -38 11 -13 0 -14 -3 -4 -15 7 -8 18
-15 25 -15 7 0 15 -6 18 -13 3 -8 50 -36 106 -62 55 -27 97 -53 94 -58 -3 -5
4 -6 18 -2 23 7 24 7 4 -9 -11 -8 -28 -16 -38 -16 -10 0 -15 -4 -12 -10 3 -5
1 -10 -6 -10 -10 0 -10 -3 -1 -12 18 -18 116 4 297 69 201 73 477 221 619 332
73 56 275 251 261 250 -5 0 -30 -20 -55 -44z"/>
<path d="M6261 3095 c27 -39 35 -47 89 -98 30 -29 83 -79 117 -113 35 -33 76
-67 91 -75 15 -8 36 -22 47 -32 21 -20 109 -67 122 -67 4 0 0 5 -9 11 -10 5
-15 16 -12 24 4 8 1 15 -6 15 -6 0 -8 -5 -4 -11 4 -7 -21 8 -56 32 -34 24 -81
57 -103 72 -23 16 -41 32 -40 37 2 5 -34 36 -80 70 -45 34 -102 83 -126 108
-24 26 -37 38 -30 27z"/>
<path d="M7535 2854 c-11 -8 -28 -13 -37 -10 -10 2 -21 0 -24 -5 -11 -19 63
-9 81 11 21 23 9 26 -20 4z"/>
<path d="M7528 2773 c12 -2 30 -2 40 0 9 3 -1 5 -23 4 -22 0 -30 -2 -17 -4z"/>
</g>
</svg>
